# xmcd
# Track frame offsets:
# 150
# 15950
# 37453
# 61982
# 87842
# 101753
# 115116
# 131550
# 153137
# 168448
# 181795
# 201485
# 213003
# 233283
# 262709
# 283932
#
# Disc length: 4084 seconds
# Revision: 0
# Processed by: cddbd v1.5.2PL0 Copyright (c) Steve Scherf et al.
# Submitted via: VisiTrax 2.9.10.228 - For more info visit www.synapsa.com
#
DISCID=cd0ff210
DTITLE=Alison Krauss - A hundred miles of more
DYEAR=1900
DGENRE=
TTITLE0=Alison Krauss - You're just a country boy
TTITLE1=Alison Krauss - Simple love
TTITLE2=Alison Krauss - Jacob's dream
TTITLE3=Alison Krauss - Away down the river
TTITLE4=Alison Krauss - Sawing on the strings
TTITLE5=Alison Krauss - Down to the river to pray
TTITLE6=Alison Krauss - Baby mine
TTITLE7=Alison Krauss - Molly Bán
TTITLE8=Alison Krauss and James Taylor - How's the world treating you
TTITLE9=Alison Krauss - The Scarlet tide
TTITLE10=Alison Krauss and Brad Paisley - Whiskey lullaby
TTITLE11=Alison Krauss - You will be my ain true love
TTITLE12=Alison Krauss - I give you to his heart
TTITLE13=Alison Krauss - Get me through December
TTITLE14=Alison Krauss and John Waite - Missing you
TTITLE15=Alison Krauss and John Waite - Lay down beside me
EXTD=Rounder/Decca, 11661-0555-2
EXTT0=
EXTT1=
EXTT2=
EXTT3=
EXTT4=
EXTT5=
EXTT6=
EXTT7=
EXTT8=
EXTT9=
EXTT10=
EXTT11=
EXTT12=
EXTT13=
EXTT14=
EXTT15=
PLAYORDER=
